<svg width="33" height="29" viewBox="0 0 33 29" fill="none" xmlns="http://www.w3.org/2000/svg">
<path fill-rule="evenodd" clip-rule="evenodd" d="M11.2572 0H10.414L10.2716 0.831036L8.82708 9.25714H2.00003H0.759277L1.02285 10.4696L4.87999 28.2124L5.0512 29H5.85717H27.0715H27.8774L28.0486 28.2124L31.9058 10.4696L32.1693 9.25714H30.9286H24.1016L22.6571 0.831036L22.5146 0H21.6715H11.2572ZM22.4153 11.2571L23.0001 14.669L24.9714 14.331L24.4444 11.2571H29.6878L26.2655 27H6.66313L3.24077 11.2571H8.48423L7.95727 14.331L9.92852 14.669L10.5134 11.2571H22.4153ZM22.0724 9.25714L20.8283 2H12.1003L10.8563 9.25714H22.0724Z" fill="#2C2B2B"/>
</svg>
