<svg width="30" height="30" viewBox="0 0 30 30" fill="none" xmlns="http://www.w3.org/2000/svg"><path d="M19 28.491h0c.83.302 1.673.452 2.52.452L19 28.49zm0 0a29.52 29.52 0 01-10.718-6.83 29.518 29.518 0 01-6.83-10.717 7.282 7.282 0 01-.374-3.585M19 28.492l3.175-8.394m0 0l-2.485 2.485-.51.511-.646-.325a25.629 25.629 0 01-11.36-11.36l-.324-.645.51-.51 2.485-2.485L8.394 1a7.333 7.333 0 00-3.467.878A7.512 7.512 0 002.35 4.173 7.478 7.478 0 001.078 7.36M22.174 20.1l6.768 1.45a7.333 7.333 0 01-.877 3.466h0a7.514 7.514 0 01-2.296 2.578h0a7.478 7.478 0 01-3.186 1.271h0c-.356.053-.71.079-1.063.079l.654-8.845zM1.078 7.358l-.99-.145m.99.145l-.99-.145m0 0a8.282 8.282 0 00.423 4.071 30.517 30.517 0 007.064 11.082 30.52 30.52 0 0011.083 7.064M.088 7.214A8.478 8.478 0 011.532 3.6 8.512 8.512 0 014.454.997 8.338 8.338 0 018.446 0c.441 0 .822.308.915.74m9.297 28.691L9.868 7.744h.001l.045.045.915-.196m7.829 21.838c.937.34 1.895.512 2.862.512l-2.862-.512zM9.36.74l-.915.196-.063.013h0l.063-.013L9.36.74zm0 0l1.468 6.853m0 0a.936.936 0 01-.253.858l-.662-.662.915-.196z" stroke="#CCB48A" stroke-width="2"/></svg>