<svg width="16" height="20" viewBox="0 0 16 20" fill="none" xmlns="http://www.w3.org/2000/svg"><mask id="path-1-inside-1" fill="#fff"><path fill-rule="evenodd" clip-rule="evenodd" d="M8 10A5 5 0 108 0a5 5 0 000 10zm0 0a8 8 0 018 8v2H0v-2a8 8 0 018-8z"/></mask><path d="M16 20v1h1v-1h-1zM0 20h-1v1h1v-1zM12 5a4 4 0 01-4 4v2a6 6 0 006-6h-2zM8 1a4 4 0 014 4h2a6 6 0 00-6-6v2zM4 5a4 4 0 014-4v-2a6 6 0 00-6 6h2zm4 4a4 4 0 01-4-4H2a6 6 0 006 6V9zm0 2a7 7 0 017 7h2a9 9 0 00-9-9v2zm7 7v2h2v-2h-2zm1 1H0v2h16v-2zM1 20v-2h-2v2h2zm0-2a7 7 0 017-7V9a9 9 0 00-9 9h2z" fill="#2C2B2B" mask="url(#path-1-inside-1)"/></svg>