<svg width="24" height="24" viewBox="0 0 24 24" fill="none" xmlns="http://www.w3.org/2000/svg"><circle cx="12" cy="7" r="6" fill="#CCB48A"/><path fill-rule="evenodd" clip-rule="evenodd" d="M23 24c0-6.075-4.925-11-11-11S1 17.925 1 24h22z" fill="#CCB48A"/><path d="M20.485 15.515a11.954 11.954 0 00-4.56-2.86 6.935 6.935 0 003.012-5.717A6.945 6.945 0 0012 0a6.945 6.945 0 00-6.938 6.938 6.935 6.935 0 003.013 5.717 11.954 11.954 0 00-4.56 2.86A11.922 11.922 0 000 24h1.875c0-5.583 4.542-10.125 10.125-10.125S22.125 18.417 22.125 24H24c0-3.205-1.248-6.219-3.515-8.485zM12 12a5.068 5.068 0 01-5.063-5.063A5.068 5.068 0 0112 1.875a5.068 5.068 0 015.063 5.063A5.068 5.068 0 0112 12z" fill="#2C2B2B"/></svg>